<?xml version="1.0" encoding="UTF-8"?>
<svg id="Layer_2" data-name="Layer 2" xmlns="http://www.w3.org/2000/svg" viewBox="0 0 2402.26 463.96">
  <defs>
    <style>
      .cls-1 {
        fill: #00aeef;
      }

      .cls-2 {
        fill: #474747;
        font-family: Prometo-Light, Prometo;
        font-size: 80.35px;
        font-weight: 300;
        isolation: isolate;
      }

      .cls-3 {
        letter-spacing: .77em;
      }

      .cls-4 {
        letter-spacing: .77em;
      }

      .cls-5 {
        opacity: .45;
      }

      .cls-5, .cls-6 {
        fill: none;
      }

      .cls-7 {
        fill: #454545;
      }

      .cls-6 {
        opacity: .25;
      }

      .cls-8 {
        letter-spacing: .78em;
      }
    </style>
  </defs>
  <g id="Layer_2-2" data-name="Layer 2">
    <g>
      <g>
        <path class="cls-7" d="m134.9,68.8h86.8c0-28.7-23.3-52-52-52h-35C60.3,16.8,0,78.2,0,154v37.8c0,75.8,60.3,137.2,134.7,137.2h35c28.7,0,52-23.3,52-52h-86.8c-47.2,0-81.9-35.8-81.9-84.9v-38.3c-.1-49.1,34.6-85,81.9-85Z"/>
        <path class="cls-7" d="m487.9,315.3c-9.1,10.6-26,11.6-37.1,1.4l-144.1-130.9c-4.8-4.3-8.2-11.6-8.2-18.3,0-14.4,12.1-26.4,26.5-26.4h83.4c23.7,0,38.5-16.9,38.5-38s-15-38.5-38.5-38.5h-140c-.2,0-.3.1-.3.3h0c0-28.3,23-51.3,51.3-51.3h89.5c52.5,0,91.1,40,91.1,89.5s-37.6,88.6-91.6,88.6h-17.7c-.3,0-.3.3-.2.5l95.9,86.2c10.7,9,11.6,25.8,1.5,36.9Z"/>
        <path class="cls-7" d="m671.7,240.8c0-26.5-9-52.3-25.3-73.2l-94.2-119.4c-9.1-11.6-7.3-28,4.3-36.6,11.6-8.7,28-6.8,36.7,4.3l27.3,34.6c39.6,50.3,115.9,50.3,155.5,0l27.3-34.6c8.7-11.1,25.1-13,36.7-4.3s13.5,25,4.3,36.6l-94.7,120.1c-16.1,20.4-24.8,45.7-24.8,71.7v53.7c0,10.1-5.6,19.4-14.6,23.7-19.1,9-38.4-5.4-38.4-23.7l-.1-52.9h0Z"/>
        <path class="cls-7" d="m922.8,57.1h0c-12.3,0-23.5-8.4-25.8-20.6-3.1-16.1,9.5-30.4,25.1-30.4h251.8c12.3,0,23.5,8.4,25.8,20.6,3.1,16.1-9.5,30.5-25.1,30.5h-.8c-54.7,0-99,44.3-99,99v133.6c0,10.1-5.6,19.4-14.6,23.7-19.1,9-38.4-5.4-38.4-23.7v-133.6c.1-54.7-44.3-99.1-99-99.1Z"/>
        <path class="cls-7" d="m1888.2,38.2c0-16.4,15.5-29.7,32.4-25.8,12.2,2.8,20.6,14,20.6,26.5v194.7c0,55.8-41,94.4-94,94.4s-94-38.5-94-94.4V102.2c0-24.6-17.3-41.9-41-41.9s-41,17.3-41,41.9v196.2c0,13.1-9.2,24.8-22.1,26.9-16.3,2.7-30.9-10.2-30.9-26.1V103.7c0-55.8,41-94.4,94-94.4s94,38.5,94,94.4v131.4c0,24.6,17.3,41.9,41,41.9s41-17.3,41-41.9V38.2h0Z"/>
        <path class="cls-7" d="m1987.7,38.2c0-15.9,14.5-28.8,30.9-26.1,12.9,2.2,22.1,13.8,22.1,26.9v259.3c0,13.1-9.2,24.8-22.1,26.9-16.3,2.7-30.9-10.2-30.9-26.1V38.2Z"/>
        <path class="cls-7" d="m2336.4,298.2c-51.3-51.4-134.6-51.4-185.8,0l-18.8,18.9c-10.6,10.1-27,10.1-37.1-.5-10.1-10.1-9.6-26.4.5-36.6l57.8-57.3c30.1-29.7,30.1-78.2.1-108l-58-57.6c-10.1-10.1-10.6-26.4-.5-36.6,10.1-10.6,26.5-10.6,36.7-.5l19.5,19.5c51.3,51.2,134.2,51.2,185.5,0l19.5-19.5c10.1-10.1,26.5-10.1,36.7.5,10.1,10.1,9.6,26.4-.5,36.6l-58,57.6c-30,29.8-29.9,78.3.1,108l57.8,57.3c10.1,10.1,10.6,26.4.5,36.6-10.1,10.6-26.5,10.6-37.1.5l-18.9-18.9Z"/>
        <g>
          <g>
            <g>
              <path class="cls-1" d="m1543.8,161.5c.3-6.8,5.9-11.7,12.8-11.3l3.5.2c6.9.3,12,5.8,11.7,12.6l-.3,6.7c-.3,6.8-5.9,11.7-12.8,11.3l-3.5-.2c-6.9-.3-12-5.8-11.7-12.6l.3-6.7Zm15.1,13.5c3.6.2,6.6-2.3,6.8-5.8l.3-6.4c.2-3.5-2.5-6.3-6.2-6.5l-3.5-.2c-3.6-.2-6.6,2.3-6.8,5.8l-.3,6.4c-.2,3.5,2.5,6.3,6.2,6.5l3.5.2Z"/>
              <path class="cls-1" d="m1566.6,187.7c1.6.3,2.7,1.9,2.4,3.5s-1.9,2.6-3.5,2.3l-22.4-4.6c-1.6-.3-2.7-1.9-2.4-3.5s1.9-2.6,3.5-2.3l22.4,4.6Z"/>
              <path class="cls-1" d="m1536.6,202.4c2.4-6.3,9.1-9.4,15.6-7l3.2,1.2c6.5,2.4,9.7,9.1,7.3,15.5l-2.3,6.3c-2.4,6.3-9.1,9.4-15.6,7l-3.2-1.2c-6.5-2.4-9.7-9.1-7.3-15.5l2.3-6.3Zm10.3,17.4c3.5,1.3,6.9-.3,8.2-3.5l2.2-6.1c1.3-3.4-.5-6.8-4-8l-3.2-1.2c-3.5-1.3-6.9.3-8.2,3.5l-2.2,6.1c-1.3,3.4.5,6.8,4,8l3.2,1.2Z"/>
              <path class="cls-1" d="m1550.4,234c1.4.8,2,2.6,1.2,4.1-.8,1.4-2.6,1.9-4.1,1.1l-20-11.1c-1.4-.8-2-2.6-1.2-4.1.8-1.4,2.6-1.9,4.1-1.1l20,11.1Z"/>
              <path class="cls-1" d="m1517.4,239.1c4.1-5.4,11.5-6.3,17.1-2l2.7,2.1c5.5,4.2,6.6,11.6,2.4,17l-4.1,5.3c-4.1,5.4-11.5,6.3-17.1,2l-2.7-2.1c-5.5-4.2-6.6-11.6-2.4-17l4.1-5.3Zm4.7,19.7c2.9,2.2,6.8,1.9,8.9-.9l4-5.1c2.2-2.8,1.5-6.6-1.4-8.9l-2.7-2.1c-2.9-2.2-6.8-1.9-8.9.9l-4,5.1c-2.2,2.8-1.5,6.6,1.4,8.9l2.7,2.1Z"/>
              <path class="cls-1" d="m1521.2,273.6c1.2,1.2,1.1,3.1-.1,4.2-1.2,1.1-3.1,1.1-4.2-.2l-15.8-16.6c-1.2-1.2-1.1-3.1.1-4.2,1.2-1.1,3.1-1.1,4.2.2l15.8,16.6Z"/>
              <path class="cls-1" d="m1488.2,268.5c5.6-3.9,12.8-2.5,16.8,3.2l1.9,2.8c4,5.7,2.8,13-2.8,16.9l-5.5,3.8c-5.6,3.9-12.8,2.5-16.8-3.2l-1.9-2.8c-4-5.7-2.8-13,2.8-16.9l5.5-3.8Zm-1.5,20.1c2.1,3,5.8,3.8,8.8,1.8l5.3-3.7c3-2,3.5-5.8,1.4-8.9l-1.9-2.8c-2.1-3-5.8-3.8-8.8-1.8l-5.3,3.7c-3,2-3.5,5.8-1.4,8.9l1.9,2.8Z"/>
              <path class="cls-1" d="m1481.3,302.5c.8,1.5.2,3.3-1.4,4.1-1.4.7-3.3.1-4-1.4l-10.1-20.5c-.8-1.5-.2-3.3,1.4-4.1,1.4-.7,3.3-.1,4,1.4l10.1,20.5Z"/>
              <path class="cls-1" d="m1451.4,287.6c6.5-2,13,1.6,15,8.2l1,3.3c2,6.7-1.4,13.3-7.9,15.2l-6.4,1.9c-6.5,2-13-1.6-15-8.2l-1-3.3c-2-6.7,1.4-13.3,7.9-15.2l6.4-1.9Zm-7.6,18.7c1.1,3.5,4.4,5.4,7.8,4.4l6.2-1.9c3.4-1,5.1-4.5,4.1-8l-1-3.3c-1.1-3.5-4.4-5.4-7.8-4.4l-6.2,1.9c-3.4,1-5.1,4.5-4.1,8l1,3.3Z"/>
              <path class="cls-1" d="m1434.4,317.8c.3,1.7-.9,3.2-2.5,3.4-1.6.3-3.1-.9-3.4-2.6l-3.2-22.6c-.3-1.7.9-3.2,2.5-3.4,1.6-.3,3.1.9,3.4,2.6l3.2,22.6Z"/>
              <path class="cls-1" d="m1410.6,294.4c6.8.1,11.9,5.5,11.7,12.4l-.1,3.5c-.1,6.9-5.4,12.2-12.2,12.1l-6.7-.1c-6.8-.1-11.9-5.5-11.7-12.4l.1-3.5c.1-6.9,5.4-12.2,12.2-12.1l6.7.1Zm-13,15.5c-.1,3.6,2.5,6.5,6.1,6.6l6.4.1c3.5.1,6.3-2.7,6.3-6.3l.1-3.5c.1-3.6-2.5-6.5-6.1-6.6l-6.4-.1c-3.5-.1-6.3,2.7-6.3,6.3l-.1,3.5Z"/>
              <path class="cls-1" d="m1385.2,318c-.3,1.6-1.9,2.8-3.5,2.4-1.6-.3-2.7-1.9-2.4-3.5l3.9-22.6c.3-1.6,1.9-2.8,3.5-2.4,1.6.3,2.7,1.9,2.4,3.5l-3.9,22.6Z"/>
              <path class="cls-1" d="m1369.6,288.4c6.4,2.2,9.6,8.9,7.4,15.5l-1.1,3.2c-2.2,6.6-8.9,10-15.3,7.8l-6.3-2.2c-6.4-2.2-9.6-8.9-7.4-15.5l1.1-3.2c2.2-6.6,8.9-10,15.3-7.8l6.3,2.2Zm-17.1,10.8c-1.2,3.5.4,6.9,3.8,8.1l6.1,2.1c3.4,1.2,6.8-.7,7.9-4.1l1.1-3.2c1.2-3.5-.4-6.9-3.8-8.1l-6.1-2.1c-3.4-1.2-6.8.7-7.9,4.1l-1.1,3.2Z"/>
              <path class="cls-1" d="m1338.2,303c-.8,1.4-2.6,2-4.1,1.3-1.4-.8-2-2.6-1.2-4.1l10.6-20.2c.8-1.5,2.6-2,4.1-1.3s2,2.6,1.2,4.1l-10.6,20.2Z"/>
              <path class="cls-1" d="m1332.6,270c5.4,4.1,6.4,11.4,2.3,17l-2,2.8c-4.1,5.6-11.5,6.8-16.9,2.7l-5.4-4c-5.4-4.1-6.4-11.4-2.3-17l2-2.8c4.1-5.6,11.5-6.8,16.9-2.7l5.4,4Zm-19.6,5.1c-2.2,3-1.8,6.8,1.1,8.9l5.2,3.8c2.9,2.1,6.7,1.4,8.8-1.5l2-2.8c2.2-3,1.8-6.8-1.1-8.9l-5.2-3.8c-2.9-2.1-6.7-1.4-8.8,1.5l-2,2.8Z"/>
              <path class="cls-1" d="m1298.2,274.4c-1.2,1.2-3.1,1.2-4.2,0s-1.1-3,.1-4.2l16.3-16.1c1.2-1.2,3.1-1.2,4.2,0,1.2,1.2,1.1,3-.1,4.2l-16.3,16.1Z"/>
              <path class="cls-1" d="m1302.7,241.3c4,5.5,2.7,12.8-2.9,16.9l-2.8,2c-5.7,4.1-13,3-17-2.5l-4-5.4c-4-5.5-2.7-12.8,2.9-16.9l2.8-2c5.7-4.1,13-3,17,2.5l4,5.4Zm-20.2-1.1c-3,2.1-3.7,5.9-1.6,8.8l3.8,5.2c2.1,2.9,5.9,3.4,8.9,1.2l2.8-2c3-2.1,3.7-5.9,1.6-8.8l-3.8-5.2c-2.1-2.9-5.9-3.4-8.9-1.2l-2.8,2Z"/>
              <path class="cls-1" d="m1268.6,235.1c-1.5.8-3.3.2-4.1-1.3s-.2-3.3,1.4-4.1l20.4-10.5c1.5-.8,3.3-.2,4.1,1.3.8,1.4.2,3.3-1.4,4.1l-20.4,10.5Z"/>
              <path class="cls-1" d="m1282.8,204.9c2.1,6.4-1.3,13-7.9,15.3l-3.2,1.1c-6.6,2.2-13.3-1-15.5-7.4l-2.1-6.3c-2.1-6.4,1.3-13,7.9-15.3l3.2-1.1c6.6-2.2,13.3,1,15.5,7.4l2.1,6.3Zm-18.9-7.1c-3.5,1.2-5.3,4.6-4.1,7.9l2,6.1c1.1,3.4,4.6,5,8.1,3.8l3.2-1.1c3.5-1.2,5.3-4.6,4.1-7.9l-2-6.1c-1.1-3.4-4.6-5-8.1-3.8l-3.2,1.1Z"/>
              <path class="cls-1" d="m1252.1,188.8c-1.6.3-3.2-.8-3.5-2.4s.8-3.1,2.4-3.5l22.6-3.9c1.6-.3,3.2.8,3.5,2.4.3,1.6-.8,3.1-2.4,3.5l-22.6,3.9Z"/>
              <path class="cls-1" d="m1274.8,164.3c.2,6.8-5.1,12.1-12,12.2l-3.5.1c-6.9.2-12.3-4.9-12.5-11.7l-.2-6.7c-.2-6.8,5.1-12.1,12-12.2l3.5-.1c6.9-.2,12.3,4.9,12.5,11.7l.2,6.7Zm-16-12.5c-3.6.1-6.4,2.8-6.3,6.3l.2,6.4c.1,3.5,3,6.1,6.6,6.1l3.5-.1c3.6-.1,6.4-2.8,6.3-6.3l-.2-6.4c-.1-3.5-3-6.1-6.6-6.1l-3.5.1Z"/>
            </g>
            <path class="cls-1" d="m1543.8,170.2c.3,6.8,5.9,11.7,12.8,11.3l3.5-.2c6.9-.3,12-5.8,11.7-12.6l-.3-6.7c-.3-6.8-5.9-11.7-12.8-11.3l-3.5.2c-6.9.3-12,5.8-11.7,12.6l.3,6.7Zm15.1-13.5c3.6-.2,6.6,2.3,6.8,5.8l.3,6.4c.2,3.5-2.5,6.3-6.2,6.5l-3.5.2c-3.6.2-6.6-2.3-6.8-5.8l-.3-6.4c-.2-3.5,2.5-6.3,6.2-6.5l3.5-.2Z"/>
            <path class="cls-1" d="m1567.4,141.6c1.7-.3,2.8-1.9,2.5-3.5s-1.9-2.7-3.5-2.4l-22.7,4c-1.7.3-2.8,1.9-2.5,3.5s1.9,2.7,3.5,2.4l22.7-4Z"/>
            <path class="cls-1" d="m1537.6,125.7c2.2,6.5,9,9.8,15.5,7.6l3.3-1.1c6.7-2.3,10.1-9,7.9-15.5l-2.1-6.4c-2.2-6.5-9-9.8-15.5-7.6l-3.3,1.1c-6.7,2.3-10.1,9-7.9,15.5l2.1,6.4Zm10.9-17.3c3.5-1.2,7,.4,8.2,3.9l2,6.3c1.2,3.5-.7,6.8-4.2,8l-3.3,1.1c-3.5,1.2-7-.4-8.2-3.9l-2-6.3c-1.2-3.5.7-6.8,4.2-8l3.3-1.1Z"/>
            <path class="cls-1" d="m1552.5,93.9c1.5-.8,2.1-2.6,1.4-4.1-.8-1.4-2.6-2-4.1-1.3l-20.5,10.6c-1.5.8-2.1,2.6-1.4,4.1.8,1.4,2.6,2,4.1,1.3l20.5-10.6Z"/>
            <path class="cls-1" d="m1519.3,87.8c4.1,5.6,11.4,6.7,17.1,2.5l2.8-2c5.7-4.1,6.9-11.6,3-17.2l-4-5.5c-4.1-5.6-11.4-6.7-17.1-2.5l-2.8,2c-5.7,4.1-6.9,11.6-3,17.2l4,5.5Zm5.4-19.8c3-2.2,6.8-1.7,9,1.3l3.8,5.3c2.1,3,1.4,6.8-1.6,9l-2.8,2c-3,2.2-6.8,1.7-9-1.3l-3.8-5.3c-2.1-3-1.4-6.8,1.6-9l2.8-2Z"/>
            <path class="cls-1" d="m1524.2,52.9c1.2-1.2,1.3-3.1.1-4.3s-3-1.2-4.3,0l-16.4,16.4c-1.2,1.2-1.3,3.1-.1,4.3s3,1.2,4.3,0l16.4-16.4Z"/>
            <path class="cls-1" d="m1490.7,57.1c5.5,4.1,12.9,2.9,17.1-2.8l2-2.8c4.1-5.7,3.1-13.2-2.4-17.3l-5.4-4.1c-5.5-4.1-12.9-2.9-17.1,2.8l-2,2.8c-4.1,5.7-3.1,13.2,2.4,17.3l5.4,4.1Zm-.8-20.6c2.2-3,6-3.7,8.9-1.5l5.2,3.9c2.9,2.2,3.3,6.1,1.1,9l-2,2.8c-2.2,3-6,3.7-8.9,1.5l-5.2-3.9c-2.9-2.2-3.3-6.1-1.1-9l2-2.8Z"/>
            <path class="cls-1" d="m1484.8,22.3c.8-1.5.3-3.4-1.3-4.1-1.5-.8-3.3-.2-4.1,1.4l-10.7,20.6c-.8,1.5-.3,3.4,1.3,4.1,1.4.8,3.3.2,4.1-1.4l10.7-20.6Z"/>
            <path class="cls-1" d="m1454.2,36.6c6.5,2.2,13.2-1.3,15.4-7.9l1.1-3.3c2.3-6.7-1-13.5-7.5-15.7l-6.4-2.2c-6.5-2.2-13.2,1.3-15.4,7.9l-1.1,3.3c-2.3,6.7,1,13.5,7.5,15.7l6.4,2.2Zm-7.1-19.2c1.2-3.5,4.6-5.4,8-4.2l6.2,2.1c3.4,1.2,5,4.7,3.8,8.3l-1.1,3.3c-1.2,3.5-4.6,5.4-8,4.2l-6.2-2.1c-3.4-1.2-5-4.7-3.8-8.3l1.1-3.3Z"/>
            <path class="cls-1" d="m1438,5.4c.3-1.7-.8-3.3-2.4-3.5-1.6-.3-3.2.8-3.5,2.5l-3.9,22.9c-.3,1.7.8,3.3,2.4,3.5,1.6.3,3.2-.8,3.5-2.5l3.9-22.9Z"/>
            <path class="cls-1" d="m1413.3,28.5c6.8.1,12.2-5.2,12.2-12.3l.1-3.5c.1-7.1-5.1-12.5-11.9-12.6l-6.8-.1c-6.8-.1-12.2,5.2-12.2,12.3l-.1,3.5c-.1,7.1,5.1,12.5,11.9,12.6l6.8.1Zm-12.7-16.1c.1-3.7,2.7-6.5,6.3-6.5l6.5.1c3.6.1,6.2,3,6.2,6.7l-.1,3.5c-.1,3.7-2.7,6.5-6.3,6.5l-6.5-.1c-3.6-.1-6.2-3-6.2-6.7l.1-3.5Z"/>
            <path class="cls-1" d="m1388.3,3.8c-.3-1.7-1.8-2.9-3.4-2.6s-2.8,1.8-2.5,3.5l3.2,23c.3,1.7,1.8,2.9,3.4,2.6,1.6-.3,2.8-1.8,2.5-3.5l-3.2-23Z"/>
            <path class="cls-1" d="m1371.8,33.4c6.5-2,10-8.8,7.9-15.5l-1-3.3c-2-6.8-8.6-10.4-15.2-8.4l-6.4,2c-6.5,2-10,8.8-7.9,15.5l1,3.3c2,6.8,8.6,10.4,15.2,8.4l6.4-2Zm-16.9-11.4c-1.1-3.5.6-7.1,4.1-8.1l6.2-1.9c3.5-1.1,6.8.8,7.9,4.4l1,3.3c1.1,3.5-.6,7.1-4.1,8.1l-6.2,1.9c-3.5,1.1-6.8-.8-7.9-4.4l-1-3.3Z"/>
            <path class="cls-1" d="m1340.5,17.7c-.8-1.5-2.5-2.2-4.1-1.4-1.4.8-2.1,2.5-1.4,4.1l10.1,20.9c.8,1.5,2.5,2.2,4.1,1.4,1.4-.8,2.1-2.5,1.4-4.1l-10.1-20.9Z"/>
            <path class="cls-1" d="m1333.8,51c5.6-4,6.8-11.4,2.8-17.2l-1.9-2.9c-4-5.8-11.4-7.2-17-3.2l-5.6,3.9c-5.6,4-6.8,11.4-2.8,17.2l1.9,2.9c4,5.8,11.4,7.2,17,3.2l5.6-3.9Zm-19.6-5.7c-2.1-3-1.6-6.9,1.4-9l5.3-3.7c3-2.1,6.8-1.3,8.9,1.8l1.9,2.9c2.1,3,1.6,6.9-1.4,9l-5.3,3.7c-3,2.1-6.8,1.3-8.9-1.8l-1.9-2.9Z"/>
            <path class="cls-1" d="m1299.4,45.6c-1.2-1.3-3.1-1.3-4.3-.2-1.2,1.2-1.2,3.1-.1,4.3l16,16.8c1.2,1.3,3.1,1.3,4.3.2,1.2-1.2,1.2-3.1.1-4.3l-16-16.8Z"/>
            <path class="cls-1" d="m1302.9,79.4c4.1-5.5,3.1-12.9-2.4-17.2l-2.7-2.1c-5.6-4.3-13-3.4-17.1,2l-4.1,5.4c-4.1,5.5-3.1,12.9,2.4,17.2l2.7,2.1c5.6,4.3,13,3.4,17.1-2l4.1-5.4Zm-20.4.6c-3-2.3-3.5-6.1-1.4-9l4-5.2c2.2-2.9,6.1-3.2,9-1l2.7,2.1c3,2.3,3.5,6.1,1.4,9l-4,5.2c-2.2,2.9-6.1,3.2-9,1l-2.7-2.1Z"/>
            <path class="cls-1" d="m1268.4,84.7c-1.4-.8-3.3-.3-4.1,1.2-.8,1.4-.3,3.3,1.3,4.1l20.2,11.2c1.4.8,3.3.3,4.1-1.2.8-1.4.3-3.3-1.3-4.1l-20.2-11.2Z"/>
            <path class="cls-1" d="m1281.9,115.9c2.4-6.5-.8-13.3-7.4-15.7l-3.2-1.2c-6.6-2.4-13.4.7-15.8,7.2l-2.4,6.4c-2.4,6.5.8,13.3,7.4,15.7l3.2,1.2c6.6,2.4,13.4-.7,15.8-7.2l2.4-6.4Zm-19.4,6.6c-3.5-1.3-5.2-4.7-4-8.2l2.2-6.2c1.3-3.4,4.8-4.9,8.3-3.6l3.2,1.2c3.5,1.3,5.2,4.7,4,8.2l-2.2,6.2c-1.3,3.4-4.8,4.9-8.3,3.6l-3.2-1.2Z"/>
            <path class="cls-1" d="m1250.4,131.3c-1.7-.3-3.3.7-3.6,2.4-.3,1.6.8,3.2,2.4,3.5l22.6,4.6c1.7.3,3.3-.7,3.6-2.4s-.8-3.2-2.4-3.5l-22.6-4.6Z"/>
          </g>
          <g class="cls-5">
            <g>
              <path class="cls-1" d="m1507.9,178.2c1.1-4.9,5.8-7.9,10.8-6.8l2.4.6c5.1,1.1,8.1,5.7,7,10.6l-1.1,4.9c-1.1,4.9-5.8,7.9-10.8,6.8l-2.4-.6c-5.1-1.1-8.1-5.7-7-10.6l1.1-4.9Zm9.4,11.8c2.6.6,5.2-.8,5.7-3.5l1-4.6c.6-2.6-1-5-3.7-5.5l-2.4-.6c-2.6-.6-5.2.8-5.7,3.5l-1,4.6c-.6,2.6,1,4.9,3.7,5.5l2.4.6Z"/>
              <path class="cls-1" d="m1521.4,200.2c1.2.4,1.8,1.8,1.4,2.9-.4,1.1-1.8,1.7-2.9,1.3l-15.9-6.1c-1.2-.4-1.8-1.8-1.4-2.9.4-1.1,1.8-1.7,2.9-1.3l15.9,6.1Z"/>
              <path class="cls-1" d="m1497.5,207.3c2.5-4.4,7.9-5.7,12.3-3.2l2.2,1.3c4.5,2.5,6,7.9,3.5,12.2l-2.4,4.3c-2.5,4.4-7.9,5.7-12.3,3.2l-2.2-1.3c-4.5-2.5-6-7.9-3.5-12.2l2.4-4.3Zm5.4,14c2.4,1.4,5.2.7,6.4-1.6l2.4-4.1c1.4-2.3.5-5.1-1.9-6.3l-2.2-1.3c-2.4-1.4-5.2-.7-6.4,1.6l-2.4,4.1c-1.4,2.3-.5,5.1,1.9,6.3l2.2,1.3Z"/>
              <path class="cls-1" d="m1503.8,232.3c1,.8,1.2,2.2.4,3.1-.8.9-2.2,1.1-3.1.3l-13.3-10.6c-1-.8-1.2-2.2-.4-3.1.8-.9,2.2-1.1,3.1-.3l13.3,10.6Z"/>
              <path class="cls-1" d="m1479,231.8c3.7-3.5,9.2-3.1,12.8.7l1.8,1.9c3.5,3.8,3.4,9.3-.3,12.8l-3.6,3.4c-3.7,3.5-9.2,3.1-12.8-.7l-1.8-1.9c-3.5-3.8-3.4-9.3.3-12.8l3.6-3.4Zm1,15.1c1.9,2,4.7,2.2,6.7.4l3.5-3.3c1.9-1.8,1.9-4.6.1-6.7l-1.8-1.9c-1.9-2-4.7-2.2-6.7-.4l-3.5,3.3c-1.9,1.8-1.9,4.6-.1,6.7l1.8,1.9Z"/>
              <path class="cls-1" d="m1477.4,257.6c.7,1,.4,2.4-.6,3.1-1,.7-2.4.4-3.1-.7l-9.5-14.1c-.7-1-.4-2.4.6-3.1,1-.7,2.4-.4,3.1.7l9.5,14.1Z"/>
              <path class="cls-1" d="m1453.9,249.7c4.6-2.2,9.7-.3,11.9,4.5l1.1,2.3c2.2,4.6.4,9.9-4.1,12.1l-4.5,2.1c-4.6,2.2-9.7.3-11.9-4.5l-1.1-2.3c-2.2-4.6-.4-9.9,4.1-12.1l4.5-2.1Zm-3.7,14.7c1.2,2.4,3.8,3.5,6.3,2.4l4.3-2c2.4-1.1,3.3-3.9,2.1-6.3l-1.1-2.3c-1.2-2.4-3.8-3.5-6.3-2.4l-4.3,2c-2.4,1.1-3.3,3.9-2.1,6.3l1.1,2.3Z"/>
              <path class="cls-1" d="m1444.7,273.8c.3,1.2-.3,2.4-1.4,2.8-1.2.3-2.4-.3-2.8-1.5l-4.8-16.3c-.3-1.2.3-2.4,1.4-2.8,1.2-.3,2.4.3,2.8,1.5l4.8,16.3Z"/>
              <path class="cls-1" d="m1424.6,259.2c5-.7,9.4,2.8,10.1,7.9l.3,2.5c.7,5.2-2.6,9.5-7.7,10.2l-4.9.7c-5,.7-9.4-2.8-10.1-7.9l-.3-2.5c-.7-5.2,2.6-9.5,7.7-10.2l4.9-.7Zm-7.9,12.8c.3,2.7,2.5,4.5,5.2,4.1l4.7-.6c2.6-.3,4.3-2.7,4-5.3l-.3-2.5c-.3-2.7-2.5-4.5-5.2-4.1l-4.7.6c-2.6.3-4.3,2.7-4,5.3l.3,2.5Z"/>
              <path class="cls-1" d="m1408.3,279.2c0,1.3-1,2.2-2.3,2.2s-2.2-1.1-2.1-2.3l.5-17c0-1.3,1-2.2,2.3-2.2,1.2,0,2.2,1.1,2.1,2.3l-.5,17Z"/>
              <path class="cls-1" d="m1393.8,259.1c5,.9,8,5.5,7.1,10.6l-.5,2.5c-.9,5.1-5.5,8.3-10.4,7.3l-4.9-.9c-5-.9-8-5.5-7.1-10.6l.5-2.5c.9-5.1,5.5-8.3,10.4-7.3l4.9.9Zm-11.5,9.7c-.5,2.7,1,5.1,3.6,5.6l4.7.8c2.6.5,4.9-1.2,5.4-3.9l.5-2.5c.5-2.7-1-5.1-3.6-5.6l-4.7-.8c-2.6-.5-4.9,1.2-5.4,3.9l-.5,2.5Z"/>
              <path class="cls-1" d="m1372.2,273.2c-.4,1.2-1.7,1.8-2.8,1.4-1.1-.3-1.8-1.7-1.4-2.9l5.7-16.1c.4-1.2,1.7-1.8,2.8-1.4,1.2.4,1.8,1.7,1.4,2.9l-5.7,16.1Z"/>
              <path class="cls-1" d="m1364.5,249.7c4.5,2.4,6,7.7,3.5,12.2l-1.2,2.3c-2.4,4.6-7.8,6.2-12.2,3.8l-4.4-2.4c-4.5-2.4-6-7.7-3.5-12.2l1.2-2.3c2.4-4.6,7.8-6.2,12.2-3.8l4.4,2.4Zm-13.9,5.7c-1.3,2.4-.6,5.2,1.8,6.4l4.2,2.3c2.4,1.3,5.1.3,6.3-2l1.2-2.3c1.3-2.4.6-5.2-1.8-6.4l-4.2-2.3c-2.4-1.3-5.1-.3-6.3,2l-1.2,2.3Z"/>
              <path class="cls-1" d="m1339.7,256.4c-.8,1-2.2,1.2-3.1.4-.9-.8-1.1-2.1-.4-3.1l10.3-13.5c.8-1,2.2-1.2,3.1-.4.9.8,1.1,2.1.4,3.1l-10.3,13.5Z"/>
              <path class="cls-1" d="m1339.6,231.6c3.5,3.6,3.3,9.2-.4,12.8l-1.9,1.8c-3.7,3.5-9.3,3.5-12.8-.1l-3.5-3.6c-3.5-3.6-3.3-9.2.4-12.8l1.9-1.8c3.7-3.5,9.3-3.5,12.8.1l3.5,3.6Zm-15.1,1.2c-1.9,1.9-2.1,4.7-.3,6.7l3.3,3.5c1.9,1.9,4.7,1.9,6.7,0l1.9-1.8c1.9-1.9,2.1-4.7.3-6.7l-3.3-3.5c-1.9-1.9-4.7-1.9-6.7,0l-1.9,1.8Z"/>
              <path class="cls-1" d="m1313.8,230.5c-1,.7-2.4.5-3.1-.5-.7-1-.4-2.4.6-3.1l13.9-9.7c1-.7,2.4-.5,3.1.5.7,1,.4,2.4-.6,3.1l-13.9,9.7Z"/>
              <path class="cls-1" d="m1321.2,206.8c2.2,4.6.4,9.7-4.2,12l-2.3,1.1c-4.6,2.3-9.9.6-12.2-4l-2.2-4.5c-2.2-4.6-.4-9.7,4.2-12l2.3-1.1c4.6-2.3,9.9-.6,12.2,4l2.2,4.5Zm-14.7-3.3c-2.4,1.2-3.5,3.9-2.3,6.3l2.1,4.3c1.2,2.4,3.9,3.2,6.3,2l2.3-1.1c2.4-1.2,3.5-3.9,2.3-6.3l-2.1-4.3c-1.2-2.4-3.9-3.2-6.3-2l-2.3,1.1Z"/>
              <path class="cls-1" d="m1297,198.1c-1.2.3-2.4-.3-2.8-1.4-.3-1.2.3-2.4,1.5-2.8l16.2-5.2c1.2-.3,2.4.3,2.8,1.4.3,1.2-.3,2.4-1.5,2.8l-16.2,5.2Z"/>
              <path class="cls-1" d="m1311.2,177.6c.8,5-2.5,9.4-7.6,10.2l-2.5.4c-5.1.8-9.6-2.4-10.4-7.4l-.8-4.9c-.8-5,2.5-9.4,7.6-10.2l2.5-.4c5.1-.8,9.6,2.4,10.4,7.4l.8,4.9Zm-13-7.6c-2.7.4-4.5,2.7-4.1,5.3l.8,4.7c.4,2.6,2.8,4.2,5.5,3.8l2.5-.4c2.7-.4,4.5-2.7,4.1-5.3l-.8-4.7c-.4-2.6-2.8-4.2-5.5-3.8l-2.5.4Z"/>
              <path class="cls-1" d="m1290.7,162c-1.3,0-2.3-1-2.3-2.2s1-2.2,2.3-2.2l17-.1c1.3,0,2.3,1,2.3,2.2s-1,2.2-2.3,2.2l-17,.1Z"/>
              <path class="cls-1" d="m1310.3,146.8c-.8,5-5.2,8.3-10.3,7.5l-2.5-.3c-5.1-.8-8.4-5.2-7.7-10.1l.8-4.9c.8-5,5.2-8.3,10.3-7.5l2.5.3c5.1.8,8.4,5.2,7.7,10.1l-.8,4.9Zm-10.1-11.1c-2.7-.4-5.1,1.3-5.4,3.9l-.7,4.7c-.4,2.6,1.4,4.8,4.1,5.2l2.5.3c2.7.4,5.1-1.3,5.4-3.9l.7-4.7c.4-2.6-1.4-4.8-4.1-5.2l-2.5-.3Z"/>
            </g>
            <path class="cls-1" d="m1506.9,184.5c-.6,5,2.9,9.3,8,9.9l2.5.3c5.2.6,9.5-2.8,10.1-7.8l.6-5c.6-5-2.9-9.3-8-9.9l-2.5-.3c-5.2-.6-9.5,2.8-10.1,7.8l-.6,5Zm12.7-8c2.7.3,4.6,2.5,4.2,5.2l-.6,4.7c-.3,2.6-2.6,4.3-5.3,4l-2.5-.3c-2.7-.3-4.6-2.5-4.2-5.2l.6-4.7c.3-2.6,2.6-4.3,5.3-4l2.5.3Z"/>
            <path class="cls-1" d="m1527.7,166.5c1.3,0,2.3-1,2.3-2.3s-1-2.2-2.3-2.2l-17.1.1c-1.3,0-2.3,1-2.3,2.3s1,2.2,2.3,2.2l17.1-.1Z"/>
            <path class="cls-1" d="m1507.8,151.3c.8,5.1,5.3,8.3,10.5,7.5l2.5-.4c5.2-.8,8.5-5.3,7.7-10.4l-.8-5c-.8-5.1-5.3-8.3-10.5-7.5l-2.5.4c-5.2.8-8.5,5.3-7.7,10.4l.8,5Zm10.2-11.5c2.7-.4,5.1,1.2,5.5,3.9l.8,4.8c.4,2.7-1.4,5-4.1,5.4l-2.5.4c-2.7.4-5.1-1.2-5.5-3.9l-.8-4.8c-.4-2.7,1.4-5,4.1-5.4l2.5-.4Z"/>
            <path class="cls-1" d="m1522.7,129.7c1.2-.4,1.9-1.7,1.5-2.9-.3-1.2-1.6-1.9-2.9-1.4l-16.4,5.2c-1.2.4-1.9,1.7-1.5,2.9.3,1.2,1.6,1.9,2.9,1.4l16.4-5.2Z"/>
            <path class="cls-1" d="m1499.1,121.1c2.3,4.6,7.5,6.3,12.2,4l2.3-1.2c4.6-2.4,6.5-7.7,4.3-12.2l-2.2-4.6c-2.3-4.6-7.5-6.3-12.2-4l-2.3,1.2c-4.6,2.4-6.5,7.7-4.3,12.2l2.2,4.6Zm6.4-13.9c2.4-1.3,5.2-.4,6.4,2l2.1,4.4c1.2,2.4.2,5.2-2.3,6.3l-2.3,1.2c-2.4,1.3-5.2.4-6.4-2l-2.1-4.4c-1.2-2.4-.2-5.2,2.3-6.3l2.3-1.2Z"/>
            <path class="cls-1" d="m1507,96.1c1-.8,1.3-2.1.6-3.1s-2.1-1.3-3.1-.5l-14,10c-1,.8-1.3,2.1-.6,3.1s2.1,1.3,3.1.5l14-10Z"/>
            <path class="cls-1" d="m1482,95.1c3.5,3.7,9.1,3.7,12.8.1l1.9-1.8c3.8-3.6,4-9.3.4-12.9l-3.5-3.6c-3.5-3.7-9.1-3.7-12.8-.1l-1.9,1.8c-3.8,3.6-4,9.3-.4,12.9l3.5,3.6Zm1.9-15.2c1.9-1.9,4.9-1.9,6.7,0l3.4,3.5c1.9,1.9,1.7,4.8-.3,6.8l-1.9,1.8c-1.9,1.9-4.9,1.9-6.7,0l-3.4-3.5c-1.9-1.9-1.7-4.8.3-6.8l1.9-1.8Z"/>
            <path class="cls-1" d="m1482,68.9c.8-1,.6-2.4-.4-3.2s-2.4-.5-3.1.5l-10.4,13.8c-.8,1-.6,2.4.4,3.2s2.4.5,3.1-.5l10.4-13.8Z"/>
            <path class="cls-1" d="m1457.8,75.6c4.5,2.4,9.8.8,12.2-3.9l1.2-2.3c2.4-4.6.9-10.1-3.5-12.4l-4.4-2.4c-4.5-2.4-9.8-.8-12.2,3.9l-1.2,2.3c-2.4,4.6-.9,10.1,3.5,12.4l4.4,2.4Zm-2.8-15.1c1.3-2.4,4.1-3.4,6.4-2.1l4.2,2.3c2.4,1.3,3,4.1,1.8,6.5l-1.2,2.3c-1.3,2.4-4.1,3.4-6.4,2.1l-4.2-2.3c-2.4-1.3-3-4.1-1.8-6.5l1.2-2.3Z"/>
            <path class="cls-1" d="m1449.7,50.6c.4-1.2-.2-2.5-1.4-2.9s-2.4.3-2.9,1.4l-5.7,16.3c-.4,1.2.2,2.5,1.4,2.9s2.4-.3,2.9-1.4l5.7-16.3Z"/>
            <path class="cls-1" d="m1428.8,64.5c5,.9,9.5-2.4,10.5-7.5l.5-2.5c.9-5.2-2.2-9.8-7.2-10.7l-5-.9c-5-.9-9.5,2.4-10.5,7.5l-.5,2.5c-.9,5.2,2.2,9.8,7.2,10.7l5,.9Zm-7.3-13.4c.5-2.7,2.8-4.5,5.4-4l4.7.8c2.6.5,4.2,3,3.7,5.7l-.5,2.5c-.5,2.7-2.8,4.5-5.4,4l-4.7-.8c-2.6-.5-4.2-3-3.7-5.7l.5-2.5Z"/>
            <path class="cls-1" d="m1413.6,43.3c0-1.3-.9-2.3-2.2-2.4s-2.3,1-2.3,2.2l-.5,17.3c0,1.3.9,2.3,2.2,2.4,1.3.1,2.3-1,2.3-2.2l.5-17.3Z"/>
            <path class="cls-1" d="m1397.8,63c5.1-.7,8.4-5.2,7.7-10.4l-.3-2.5c-.7-5.2-5.1-8.7-10.1-8l-5,.7c-5.1.7-8.4,5.2-7.7,10.4l.3,2.5c.7,5.2,5.1,8.7,10.1,8l5-.7Zm-11.1-10.6c-.3-2.7,1.4-5.1,4-5.5l4.8-.7c2.6-.3,4.9,1.5,5.2,4.2l.3,2.5c.3,2.7-1.4,5.1-4,5.5l-4.8.7c-2.6.3-4.9-1.5-5.2-4.2l-.3-2.5Z"/>
            <path class="cls-1" d="m1376.7,47.5c-.3-1.2-1.6-1.9-2.8-1.5-1.2.3-1.9,1.6-1.5,2.9l4.8,16.6c.3,1.2,1.6,1.9,2.8,1.5,1.2-.3,1.9-1.6,1.5-2.9l-4.8-16.6Z"/>
            <path class="cls-1" d="m1367.7,71.1c4.6-2.2,6.4-7.5,4.2-12.2l-1.1-2.4c-2.2-4.7-7.4-6.7-12.1-4.5l-4.6,2.2c-4.6,2.2-6.4,7.5-4.2,12.2l1.1,2.4c2.2,4.7,7.4,6.7,12.1,4.5l4.6-2.2Zm-13.7-6.6c-1.2-2.4-.3-5.2,2.1-6.4l4.4-2.1c2.4-1.2,5.1-.1,6.3,2.4l1.1,2.4c1.2,2.4.3,5.2-2.1,6.4l-4.4,2.1c-2.4,1.2-5.1.1-6.3-2.4l-1.1-2.4Z"/>
            <path class="cls-1" d="m1343,62.9c-.7-1-2.1-1.4-3.1-.7s-1.3,2.1-.6,3.1l9.6,14.3c.7,1,2.1,1.4,3.1.7s1.3-2.1.6-3.1l-9.6-14.3Z"/>
            <path class="cls-1" d="m1341.5,88.1c3.7-3.5,3.9-9.1.3-12.9l-1.8-1.9c-3.5-3.9-9.1-4.1-12.8-.6l-3.7,3.5c-3.7,3.5-3.9,9.1-.3,12.9l1.8,1.9c3.5,3.9,9.1,4.1,12.8.6l3.7-3.5Zm-15-2.1c-1.9-2-1.9-4.9.1-6.8l3.5-3.3c1.9-1.9,4.8-1.6,6.7.4l1.8,1.9c1.9,2,1.9,4.9-.1,6.8l-3.5,3.3c-1.9,1.9-4.8,1.6-6.7-.4l-1.8-1.9Z"/>
            <path class="cls-1" d="m1315.5,87.6c-1-.8-2.4-.7-3.1.3s-.6,2.4.4,3.2l13.4,10.7c1,.8,2.4.7,3.1-.3.8-.9.6-2.4-.4-3.2l-13.4-10.7Z"/>
            <path class="cls-1" d="m1321.5,112.2c2.5-4.5,1-9.9-3.5-12.5l-2.2-1.3c-4.5-2.6-9.9-1.2-12.4,3.3l-2.5,4.4c-2.5,4.5-1,9.9,3.5,12.5l2.2,1.3c4.5,2.6,9.9,1.2,12.4-3.3l2.5-4.4Zm-15,2.5c-2.4-1.4-3.2-4.1-1.9-6.5l2.4-4.2c1.4-2.4,4.1-3,6.5-1.6l2.2,1.3c2.4,1.4,3.2,4.1,1.9,6.5l-2.4,4.2c-1.4,2.4-4.1,3-6.5,1.6l-2.2-1.3Z"/>
            <path class="cls-1" d="m1296.6,119.7c-1.2-.4-2.4.1-3,1.3-.5,1.2.2,2.4,1.4,2.9l16,6.2c1.2.4,2.4-.1,3-1.3.5-1.2-.2-2.4-1.4-2.9l-16-6.2Z"/>
          </g>
          <g class="cls-6">
            <g>
              <path class="cls-1" d="m1479.4,162.1c.3-3.5,3.1-6.1,6.8-5.8l1.8.1c3.6.3,6.3,3.1,6,6.6l-.2,3.5c-.3,3.5-3.1,6.1-6.8,5.8l-1.8-.1c-3.6-.3-6.3-3.1-6-6.6l.2-3.5Zm7.8,7.1c1.9.1,3.5-1.2,3.5-3l.2-3.4c.1-1.9-1.3-3.3-3.2-3.4l-1.8-.1c-1.9-.1-3.5,1.2-3.5,3l-.2,3.4c-.1,1.9,1.3,3.3,3.2,3.4l1.8.1Z"/>
              <path class="cls-1" d="m1491.1,175.7c.8.2,1.4,1,1.2,1.9-.2.8-1,1.4-1.9,1.2l-11.7-2.4c-.8-.2-1.4-1-1.2-1.9s1-1.4,1.9-1.2l11.7,2.4Z"/>
              <path class="cls-1" d="m1475.4,183.3c1.3-3.3,4.8-4.9,8.2-3.5l1.7.6c3.4,1.3,5,4.8,3.8,8.1l-1.3,3.3c-1.3,3.3-4.8,4.9-8.2,3.5l-1.7-.6c-3.4-1.3-5-4.8-3.8-8.1l1.3-3.3Zm5.2,9.1c1.8.7,3.6-.1,4.3-1.9l1.2-3.1c.7-1.8-.3-3.5-2-4.2l-1.7-.6c-1.8-.7-3.6.1-4.3,1.9l-1.2,3.1c-.7,1.8.3,3.5,2,4.2l1.7.6Z"/>
              <path class="cls-1" d="m1482.5,199.9c.8.4,1,1.4.6,2.1s-1.4,1-2.1.6l-10.4-5.8c-.8-.4-1-1.4-.6-2.1s1.4-1,2.1-.6l10.4,5.8Z"/>
              <path class="cls-1" d="m1465.2,202.4c2.2-2.8,6-3.2,8.9-.9l1.4,1.1c2.9,2.2,3.4,6.1,1.2,8.9l-2.2,2.8c-2.2,2.8-6,3.2-8.9.9l-1.4-1.1c-2.9-2.2-3.4-6.1-1.2-8.9l2.2-2.8Zm2.4,10.3c1.5,1.2,3.5,1,4.6-.4l2.1-2.6c1.2-1.4.8-3.5-.7-4.6l-1.4-1.1c-1.5-1.2-3.5-1-4.6.4l-2.1,2.6c-1.2,1.4-.8,3.5.7,4.6l1.4,1.1Z"/>
              <path class="cls-1" d="m1467,220.4c.6.7.6,1.6-.1,2.2-.6.6-1.6.5-2.2-.1l-8.1-8.7c-.6-.7-.6-1.6.1-2.2.6-.6,1.6-.5,2.2.1l8.1,8.7Z"/>
              <path class="cls-1" d="m1449.8,217.6c3-2,6.8-1.3,8.8,1.8l1,1.4c2,3,1.4,6.8-1.5,8.8l-2.9,1.9c-3,2-6.8,1.3-8.8-1.8l-1-1.4c-2-3-1.4-6.8,1.5-8.8l2.9-1.9Zm-.8,10.4c1.1,1.6,3,2,4.6.9l2.8-1.9c1.5-1,1.9-3,.8-4.6l-1-1.4c-1.1-1.6-3-2-4.6-.9l-2.8,1.9c-1.5,1-1.9,3-.8,4.6l1,1.4Z"/>
              <path class="cls-1" d="m1446.1,235.2c.3.8.1,1.7-.7,2.1-.8.3-1.7,0-2.1-.8l-5.2-10.7c-.3-.8-.1-1.7.7-2.1.8-.3,1.7,0,2.1.8l5.2,10.7Z"/>
              <path class="cls-1" d="m1430.6,227.3c3.4-1,6.8.9,7.8,4.4l.5,1.7c1,3.5-.8,6.9-4.1,7.9l-3.4,1c-3.4,1-6.8-.9-7.8-4.4l-.5-1.7c-1-3.5.8-6.9,4.1-7.9l3.4-1Zm-4.1,9.7c.5,1.9,2.3,2.9,4.1,2.3l3.2-.9c1.8-.5,2.7-2.3,2.1-4.1l-.5-1.7c-.5-1.9-2.3-2.9-4.1-2.3l-3.2.9c-1.8.5-2.7,2.3-2.1,4.1l.5,1.7Z"/>
              <path class="cls-1" d="m1421.6,243c.1.8-.5,1.7-1.4,1.8-.8.1-1.6-.5-1.8-1.4l-1.5-11.8c-.1-.8.5-1.7,1.4-1.8.8-.1,1.6.5,1.8,1.4l1.5,11.8Z"/>
              <path class="cls-1" d="m1409.3,230.7c3.5.1,6.2,3,6.1,6.6l-.1,1.8c-.1,3.6-2.9,6.3-6.4,6.3l-3.5-.1c-3.5-.1-6.2-3-6.1-6.6l.1-1.8c.1-3.6,2.9-6.3,6.4-6.3l3.5.1Zm-6.9,7.9c-.1,1.9,1.3,3.4,3.1,3.5l3.4.1c1.9.1,3.3-1.4,3.3-3.3l.1-1.8c.1-1.9-1.3-3.4-3.1-3.5l-3.4-.1c-1.9-.1-3.3,1.4-3.3,3.3l-.1,1.8Z"/>
              <path class="cls-1" d="m1395.9,242.8c-.2.8-.9,1.4-1.8,1.3-.8-.2-1.4-1-1.3-1.9l2.1-11.7c.2-.8.9-1.4,1.8-1.3.8.2,1.4,1,1.3,1.9l-2.1,11.7Z"/>
              <path class="cls-1" d="m1387.9,227.3c3.4,1.2,5,4.6,3.8,8.1l-.6,1.7c-1.2,3.4-4.6,5.2-8,4l-3.3-1.2c-3.4-1.2-5-4.6-3.8-8.1l.6-1.7c1.2-3.4,4.6-5.2,8-4l3.3,1.2Zm-9,5.6c-.6,1.8.2,3.6,1.9,4.2l3.2,1.1c1.8.6,3.5-.3,4.1-2.1l.6-1.7c.6-1.8-.2-3.6-1.9-4.2l-3.2-1.1c-1.8-.6-3.5.3-4.1,2.1l-.6,1.7Z"/>
              <path class="cls-1" d="m1371.5,234.7c-.4.8-1.4,1.1-2.1.7s-1-1.4-.6-2.1l5.7-10.5c.4-.8,1.4-1.1,2.1-.7s1,1.4.6,2.1l-5.7,10.5Z"/>
              <path class="cls-1" d="m1368.7,217.6c2.8,2.1,3.3,6,1.1,8.9l-1.1,1.4c-2.2,2.9-6,3.5-8.9,1.4l-2.8-2.1c-2.8-2.1-3.3-6-1.1-8.9l1.1-1.4c2.2-2.9,6-3.5,8.9-1.4l2.8,2.1Zm-10.3,2.4c-1.2,1.5-.9,3.5.5,4.6l2.7,2c1.5,1.1,3.5.8,4.6-.8l1.1-1.4c1.2-1.5.9-3.5-.5-4.6l-2.7-2c-1.5-1.1-3.5-.8-4.6.8l-1.1,1.4Z"/>
              <path class="cls-1" d="m1350.7,219.6c-.6.6-1.6.6-2.2,0-.6-.6-.6-1.6.1-2.2l8.5-8.3c.6-.6,1.6-.6,2.2,0,.6.6.6,1.6-.1,2.2l-8.5,8.3Z"/>
              <path class="cls-1" d="m1353.3,202.4c2,2.9,1.4,6.7-1.6,8.8l-1.4,1c-3,2.1-6.8,1.5-8.8-1.4l-2-2.9c-2-2.9-1.4-6.7,1.6-8.8l1.4-1c3-2.1,6.8-1.5,8.8,1.4l2,2.9Zm-10.5-.7c-1.5,1.1-1.9,3-.8,4.6l1.9,2.7c1.1,1.5,3,1.8,4.6.7l1.4-1c1.5-1.1,1.9-3,.8-4.6l-1.9-2.7c-1.1-1.5-3-1.8-4.6-.7l-1.4,1Z"/>
              <path class="cls-1" d="m1335.5,199c-.8.4-1.7.1-2.1-.7-.4-.8-.1-1.7.8-2.1l10.6-5.3c.8-.4,1.7-.1,2.1.7.4.8.1,1.7-.8,2.1l-10.6,5.3Z"/>
              <path class="cls-1" d="m1343.1,183.4c1.1,3.4-.7,6.8-4.1,7.9l-1.7.6c-3.5,1.1-6.9-.6-8-4l-1.1-3.3c-1.1-3.4.7-6.8,4.1-7.9l1.7-.6c3.5-1.1,6.9.6,8,4l1.1,3.3Zm-9.9-3.9c-1.8.6-2.8,2.4-2.2,4.1l1,3.2c.6,1.8,2.4,2.6,4.2,2l1.7-.6c1.8-.6,2.8-2.4,2.2-4.1l-1-3.2c-.6-1.8-2.4-2.6-4.2-2l-1.7.6Z"/>
              <path class="cls-1" d="m1327.2,174.8c-.8.2-1.7-.4-1.8-1.3-.2-.8.4-1.6,1.4-1.8l11.7-1.9c.8-.2,1.7.4,1.8,1.3.2.8-.4,1.6-1.4,1.8l-11.7,1.9Z"/>
              <path class="cls-1" d="m1339.1,162.1c0,3.5-2.7,6.3-6.3,6.3h-1.8c-3.6.1-6.4-2.6-6.5-6.2v-3.5c0-3.5,2.7-6.3,6.3-6.3h1.8c3.6-.1,6.4,2.6,6.5,6.2v3.5Zm-8.2-6.5c-1.9,0-3.4,1.4-3.3,3.3v3.4c0,1.9,1.5,3.2,3.4,3.2h1.8c1.9,0,3.4-1.4,3.3-3.3v-3.4c0-1.9-1.5-3.2-3.4-3.2h-1.8Z"/>
            </g>
            <path class="cls-1" d="m1479.4,166.5c.2,3.5,3,6.2,6.7,6l1.8-.1c3.6-.2,6.3-3,6.2-6.5l-.2-3.5c-.2-3.5-3-6.2-6.7-6l-1.8.1c-3.6.2-6.3,3-6.2,6.5l.2,3.5Zm7.8-7c1.9-.1,3.4,1.3,3.5,3.1l.2,3.4c.1,1.9-1.4,3.3-3.2,3.4l-1.8.1c-1.9.1-3.4-1.3-3.5-3.1l-.2-3.4c-.1-1.9,1.4-3.3,3.2-3.4l1.8-.1Z"/>
            <path class="cls-1" d="m1491.8,151.8c.8-.2,1.4-.9,1.4-1.8-.2-.8-.9-1.4-1.9-1.3l-11.8,1.9c-.8.2-1.4.9-1.4,1.8.2.8.9,1.4,1.9,1.3l11.8-1.9Z"/>
            <path class="cls-1" d="m1476.3,143.4c1.1,3.5,4.6,5.2,8.1,4.1l1.7-.6c3.5-1.1,5.3-4.6,4.2-8l-1.1-3.4c-1.1-3.5-4.6-5.2-8.1-4.1l-1.7.6c-3.5,1.1-5.3,4.6-4.2,8l1.1,3.4Zm5.8-9c1.9-.6,3.6.3,4.2,2l1,3.2c.6,1.8-.4,3.5-2.2,4.1l-1.7.6c-1.9.6-3.6-.3-4.2-2l-1-3.2c-.6-1.8.4-3.5,2.2-4.1l1.7-.6Z"/>
            <path class="cls-1" d="m1484.3,126.8c.8-.4,1.1-1.4.8-2.1-.4-.8-1.4-1.1-2.1-.7l-10.7,5.4c-.8.4-1.1,1.4-.8,2.1.4.8,1.4,1.1,2.1.7l10.7-5.4Z"/>
            <path class="cls-1" d="m1467,123.5c2,3,5.9,3.5,8.9,1.4l1.4-1c3-2.1,3.7-6,1.6-9l-2-2.9c-2-3-5.9-3.5-8.9-1.4l-1.4,1c-3,2.1-3.7,6-1.6,9l2,2.9Zm2.8-10.3c1.6-1.1,3.5-.8,4.6.7l1.9,2.8c1.1,1.5.7,3.5-.9,4.6l-1.4,1c-1.6,1.1-3.5.8-4.6-.7l-1.9-2.8c-1.1-1.5-.7-3.5.9-4.6l1.4-1Z"/>
            <path class="cls-1" d="m1469.7,105.3c.6-.6.7-1.6.1-2.3-.6-.6-1.6-.6-2.2,0l-8.6,8.4c-.6.6-.7,1.6-.1,2.3.6.6,1.6.6,2.2,0l8.6-8.4Z"/>
            <path class="cls-1" d="m1452.3,107.3c2.9,2.2,6.7,1.6,9-1.4l1.1-1.4c2.2-3,1.7-6.8-1.1-9l-2.8-2.1c-2.9-2.2-6.7-1.6-9,1.4l-1.1,1.4c-2.2,3-1.7,6.8,1.1,9l2.8,2.1Zm-.5-10.7c1.2-1.5,3.1-1.9,4.6-.8l2.7,2c1.5,1.1,1.7,3.2.5,4.7l-1.1,1.4c-1.2,1.5-3.1,1.9-4.6.8l-2.7-2c-1.5-1.1-1.7-3.2-.5-4.7l1.1-1.4Z"/>
            <path class="cls-1" d="m1449.3,89.2c.4-.8.2-1.8-.6-2.2s-1.7-.1-2.1.7l-5.7,10.6c-.4.8-.2,1.8.6,2.2s1.7.1,2.1-.7l5.7-10.6Z"/>
            <path class="cls-1" d="m1433.3,96.5c3.4,1.2,6.8-.6,8.1-4.1l.6-1.7c1.2-3.5-.4-7-3.8-8.2l-3.3-1.2c-3.4-1.2-6.8.6-8.1,4.1l-.6,1.7c-1.2,3.5.4,7,3.8,8.2l3.3,1.2Zm-3.6-10.1c.6-1.9,2.4-2.8,4.2-2.2l3.2,1.1c1.8.6,2.6,2.4,1.9,4.3l-.6,1.7c-.6,1.9-2.4,2.8-4.2,2.2l-3.2-1.1c-1.8-.6-2.6-2.4-1.9-4.3l.6-1.7Z"/>
            <path class="cls-1" d="m1425.1,80.1c.2-.8-.4-1.7-1.3-1.9s-1.7.4-1.9,1.3l-2.1,11.9c-.2.8.4,1.7,1.3,1.9.8.2,1.7-.4,1.9-1.3l2.1-11.9Z"/>
            <path class="cls-1" d="m1412.1,92c3.5.1,6.3-2.7,6.4-6.3v-1.9c.1-3.7-2.6-6.6-6.2-6.7l-3.5-.1c-3.5-.1-6.3,2.7-6.4,6.3v1.9c-.1,3.7,2.6,6.6,6.2,6.7l3.5.1Zm-6.6-8.4c.1-1.9,1.4-3.4,3.3-3.4l3.4.1c1.9,0,3.2,1.5,3.2,3.5v1.9c-.1,1.9-1.4,3.4-3.3,3.4l-3.4-.1c-1.9,0-3.2-1.6-3.2-3.5v-1.9Z"/>
            <path class="cls-1" d="m1399.1,79c-.1-.8-.9-1.5-1.8-1.4-.8.1-1.4.9-1.4,1.8l1.6,12c.1.8.9,1.5,1.8,1.4.8-.1,1.4-.9,1.4-1.8l-1.6-12Z"/>
            <path class="cls-1" d="m1390.3,94.4c3.4-1,5.2-4.5,4.2-8l-.5-1.8c-1-3.5-4.5-5.4-7.9-4.4l-3.4,1c-3.4,1-5.2,4.5-4.2,8l.5,1.8c1,3.5,4.5,5.4,7.9,4.4l3.4-1Zm-8.7-6.1c-.5-1.9.3-3.7,2.1-4.2l3.2-1c1.8-.5,3.5.5,4.1,2.4l.5,1.8c.5,1.9-.3,3.7-2.1,4.2l-3.2,1c-1.8.5-3.5-.5-4.1-2.4l-.5-1.8Z"/>
            <path class="cls-1" d="m1374.1,86c-.3-.8-1.4-1.2-2.1-.8-.8.3-1.1,1.4-.8,2.1l5.2,10.9c.3.8,1.4,1.2,2.1.8.8-.3,1.1-1.4.8-2.1l-5.2-10.9Z"/>
            <path class="cls-1" d="m1370.5,103.4c3-2,3.6-5.9,1.5-9l-1-1.5c-2-3-5.9-3.8-8.9-1.8l-2.9,2c-3,2-3.6,5.9-1.5,9l1,1.5c2,3,5.9,3.8,8.9,1.8l2.9-2Zm-10.2-3.1c-1.1-1.6-.8-3.6.8-4.6l2.8-1.9c1.5-1.1,3.5-.6,4.6,1l1,1.5c1.1,1.6.8,3.6-.8,4.6l-2.8,1.9c-1.5,1.1-3.5.6-4.6-1l-1-1.5Z"/>
            <path class="cls-1" d="m1352.5,100.4c-.6-.7-1.6-.7-2.2-.1s-.7,1.6-.1,2.3l8.2,8.9c.6.7,1.6.7,2.2.1s.7-1.6.1-2.3l-8.2-8.9Z"/>
            <path class="cls-1" d="m1354.2,118c2.2-2.9,1.7-6.8-1.2-9l-1.4-1.1c-2.9-2.3-6.8-1.9-9,1l-2.2,2.8c-2.2,2.9-1.7,6.8,1.2,9l1.4,1.1c2.9,2.3,6.8,1.9,9-1l2.2-2.8Zm-10.6.2c-1.5-1.2-1.9-3.2-.7-4.7l2.1-2.7c1.2-1.5,3.2-1.7,4.6-.5l1.4,1.1c1.5,1.2,1.9,3.2.7,4.7l-2.1,2.7c-1.2,1.5-3.2,1.7-4.6.5l-1.4-1.1Z"/>
            <path class="cls-1" d="m1336.2,120.6c-.8-.4-1.8-.2-2.2.6s-.2,1.7.6,2.2l10.5,5.9c.8.4,1.8.2,2.2-.6s.2-1.7-.6-2.2l-10.5-5.9Z"/>
            <path class="cls-1" d="m1343,136.9c1.3-3.4-.4-6.9-3.8-8.3l-1.7-.7c-3.4-1.3-7,.3-8.3,3.6l-1.3,3.3c-1.3,3.4.4,6.9,3.8,8.3l1.7.7c3.4,1.3,7-.3,8.3-3.6l1.3-3.3Zm-10,3.4c-1.8-.7-2.7-2.5-2-4.3l1.2-3.2c.7-1.8,2.5-2.5,4.3-1.9l1.7.7c1.8.7,2.7,2.5,2,4.3l-1.2,3.2c-.7,1.8-2.5,2.5-4.3,1.9l-1.7-.7Z"/>
            <path class="cls-1" d="m1326.6,144.8c-.8-.2-1.7.3-1.9,1.2-.2.8.3,1.7,1.3,1.9l11.7,2.5c.8.2,1.7-.3,1.9-1.2s-.3-1.7-1.3-1.9l-11.7-2.5Z"/>
          </g>
        </g>
      </g>
      <text class="cls-2" transform="translate(648.6 445.32)"><tspan class="cls-3" x="0" y="0">ev</tspan><tspan class="cls-8" x="207.95" y="0">olving with </tspan><tspan class="cls-4" x="1365.39" y="0">t</tspan><tspan class="cls-8" x="1457.39" y="0">ec</tspan></text>
      <text class="cls-2" transform="translate(2336.3 445.32)"><tspan x="0" y="0">h </tspan></text>
    </g>
  </g>
</svg>