<?xml version="1.0" encoding="UTF-8"?>
<svg id="Layer_2" data-name="Layer 2" xmlns="http://www.w3.org/2000/svg" xmlns:xlink="http://www.w3.org/1999/xlink" viewBox="0 0 5121.03 255.7">
  <defs>
    <style>
      .cls-1 {
        fill: url(#linear-gradient-2);
      }

      .cls-2 {
        letter-spacing: .51em;
      }

      .cls-3 {
        letter-spacing: .48em;
      }

      .cls-4 {
        letter-spacing: .5em;
      }

      .cls-5 {
        letter-spacing: .5em;
      }

      .cls-6, .cls-7 {
        fill: #353535;
      }

      .cls-7 {
        font-family: OmniumWide-Medium, 'Omnium Wide';
        font-size: 150.72px;
        font-weight: 500;
      }

      .cls-8 {
        letter-spacing: .49em;
      }

      .cls-9 {
        fill: url(#linear-gradient-3);
      }

      .cls-10 {
        fill: url(#linear-gradient);
      }

      .cls-11 {
        letter-spacing: .36em;
      }

      .cls-12 {
        fill: url(#linear-gradient-4);
      }
    </style>
    <linearGradient id="linear-gradient" x1="1332.55" y1="11983" x2="1332.55" y2="11812.3" gradientTransform="translate(0 12066.8) scale(1 -1)" gradientUnits="userSpaceOnUse">
      <stop offset="0" stop-color="#2e3192"/>
      <stop offset=".33" stop-color="#21429d"/>
      <stop offset=".97" stop-color="#016fba"/>
      <stop offset="1" stop-color="#0071bc"/>
    </linearGradient>
    <linearGradient id="linear-gradient-2" x1="1365.58" y1="11962.03" x2="1280.88" y2="12010.93" gradientTransform="translate(0 12066.8) scale(1 -1)" gradientUnits="userSpaceOnUse">
      <stop offset="0" stop-color="#2e3192"/>
      <stop offset=".35" stop-color="#194ca4"/>
      <stop offset=".76" stop-color="#0767b5"/>
      <stop offset="1" stop-color="#0071bc"/>
    </linearGradient>
    <linearGradient id="linear-gradient-3" x1="1456.56" y1="11930.49" x2="1522.65" y2="12044.96" gradientTransform="translate(0 12066.8) scale(1 -1)" gradientUnits="userSpaceOnUse">
      <stop offset="0" stop-color="#2e3192"/>
      <stop offset=".66" stop-color="#0d5eaf"/>
      <stop offset="1" stop-color="#0071bc"/>
    </linearGradient>
    <linearGradient id="linear-gradient-4" x1="1428.64" y1="11840.4" x2="1594.35" y2="11936.08" gradientTransform="translate(0 12066.8) scale(1 -1)" gradientUnits="userSpaceOnUse">
      <stop offset="0" stop-color="#2e3192"/>
      <stop offset=".16" stop-color="#253d9a"/>
      <stop offset=".71" stop-color="#0a62b2"/>
      <stop offset="1" stop-color="#0071bc"/>
    </linearGradient>
  </defs>
  <g id="Layer_2-2" data-name="Layer 2">
    <g id="Layer_2-2" data-name="Layer 2-2">
      <path class="cls-6" d="m120.8,252.3C51.3,252.3,0,197.5,0,125.3S51.3,3.4,120.8,3.4h115.7c10.6,0,19.2,8.6,19.2,19.2v5.2c0,10.6-8.6,19.2-19.2,19.2h-115.7c-44.5,0-77.3,33.2-77.3,80.4s32.5,81.5,77.3,81.5h115.7c10.6,0,19.2,8.6,19.2,19.2v5.2c0,10.6-8.6,19.2-19.2,19.2l-115.7-.2h0Z"/>
      <path class="cls-6" d="m540.9,246l-46.6-51.2c-6.8-7.4-16.4-11.7-26.5-11.7h-58.1c-10.6,0-19.2-8.6-19.2-19.2h0c0-10.6,8.6-19.2,19.2-19.2h84.5c31.2,0,47.6-17.8,47.6-50s-17.8-47.9-47.6-47.9h-116.4c-10.6,0-19.2,8.6-19.2,19.2v167c0,10.6-8.6,19.2-19.2,19.2h-4.8c-10.6,0-19.2-8.6-19.2-19.2V22.6c0-10.6,8.6-19.2,19.2-19.2h159.6c56.8,0,90.4,35.2,90.4,90.7,0,30.8-10.8,54.9-29.7,70.2-10,8.1-11.2,22.9-2.1,32l23.1,23.3c12,12.1,3.4,32.7-13.6,32.7h-7.2c-5.4,0-10.6-2.3-14.2-6.3h0Z"/>
      <path class="cls-6" d="m754.2,233.1v-20.9c0-35.1-12.6-69.1-35.4-95.8l-69.6-81.3c-10.6-12.4-1.8-31.6,14.6-31.6h8c5.7,0,11,2.5,14.6,6.8l76.5,90.6c7.6,9,21.6,9.1,29.3,0l76.8-90.6c3.7-4.3,9-6.8,14.6-6.8h4.9c16.4,0,25.2,19.2,14.6,31.7l-69.8,81.3c-22.9,26.7-35.5,60.7-35.5,95.9v20.7c0,10.6-8.6,19.2-19.2,19.2h-5.2c-10.6,0-19.2-8.6-19.2-19.2h0Z"/>
      <path class="cls-6" d="m1062,233.1V66.1c0-10.6-8.6-19.2-19.2-19.2h-56.1c-10.6,0-19.2-8.6-19.2-19.2v-5.2c0-10.6,8.6-19.2,19.2-19.2h194c10.6,0,19.2,8.6,19.2,19.2v5.2c0,10.6-8.6,19.2-19.2,19.2h-56.1c-10.6,0-19.2,8.6-19.2,19.2v167c0,10.6-8.6,19.2-19.2,19.2h-5.2c-10.4,0-19-8.6-19-19.2h0Z"/>
      <path class="cls-6" d="m1675.1,116.6v116.5c0,10.6-8.6,19.2-19.2,19.2h-3.1c-10.6,0-19.2-8.6-19.2-19.2V26.4c0-16.1,8.6-26,22.3-26,6.5,0,12,2.4,18.5,8.9l142.9,141.8c12.1,12,32.7,3.4,32.7-13.6V20.6c0-10.6,8.6-19.2,19.2-19.2h3.1c10.6,0,19.2,8.6,19.2,19.2v208.8c0,16.4-8.9,26-21.6,26-7.2,0-13.7-3.1-19.9-9.2l-142.1-143c-12.1-12.2-32.8-3.7-32.8,13.4h0Z"/>
      <g>
        <g>
          <path class="cls-6" d="m2146.6,123.2l31.4-30.1-84.3-81c-10.5-10.1-24.9-12-32.3-4.4l-3.6,3.7c-7.3,7.6-4.8,22,5.7,32l83.1,79.8h0Z"/>
          <path class="cls-6" d="m2219.2,132.6l-31.4,30.1,84.3,81c10.5,10.1,24.9,12,32.3,4.4l3.6-3.7c7.3-7.6,4.8-22-5.7-32l-83.1-79.8h0Z"/>
        </g>
        <path class="cls-6" d="m2063.6,212.3l208.6-200.2c10.5-10.1,24.9-12,32.3-4.4l3.6,3.7c7.3,7.6,4.8,22-5.7,32l-208.6,200.2c-10.5,10.1-24.9,12-32.3,4.4l-3.6-3.7c-7.4-7.6-4.8-21.9,5.7-32h0Z"/>
      </g>
      <path class="cls-6" d="m1972.5,0h0c11.7,0,21.2,9.5,21.2,21.2v213.3c0,11.7-9.5,21.2-21.2,21.2h0c-11.7,0-21.2-9.5-21.2-21.2V21.2c0-11.7,9.5-21.2,21.2-21.2Z"/>
      <g>
        <path class="cls-10" d="m1399.8,210.3v44.2h-17c-57.2,0-102.5-32.4-117.5-84.4,9-33.1,26.6-62.7,50.1-86.3-7.3,12.6-11.3,27.9-11.3,44.6,0,48,33.5,81.8,78.7,81.8l17,.1h0Z"/>
        <path class="cls-1" d="m1399.8,1.3v44.2h-17c-5.6,0-11,.5-16.2,1.6-22.3,4.3-40.3,17.7-51.2,36.7-23.6,23.6-41.1,53.2-50.1,86.3-3.6-12.2-5.4-25.4-5.4-39.6,0-73.5,52.2-129.2,122.9-129.2h17Z"/>
        <path class="cls-9" d="m1518.2,171.9c7.3-12.6,11.3-27.9,11.3-44.6,0-48-33.5-81.8-78.8-81.8h-6V1.3h6c57.2,0,102.5,32.4,117.5,84.4-8.9,33-26.5,62.6-50,86.2h0Z"/>
        <path class="cls-12" d="m1573.7,125.2c0,73.5-52.3,129.2-122.9,129.2h-6v-44.2h6c5.6,0,11-.5,16.2-1.6,22.3-4.3,40.3-17.7,51.2-36.7,23.6-23.6,41.1-53.2,50.1-86.3,3.6,12.2,5.4,25.4,5.4,39.6h0Z"/>
      </g>
    </g>
    <text class="cls-7" transform="translate(2401.72 170.96)"><tspan class="cls-5" x="0" y="0">e</tspan><tspan class="cls-8" x="170.92" y="0">v</tspan><tspan class="cls-4" x="337.62" y="0">olving with </tspan><tspan class="cls-3" x="2086.3" y="0">t</tspan><tspan class="cls-2" x="2233.26" y="0">e</tspan><tspan class="cls-4" x="2405.68" y="0">c</tspan><tspan class="cls-11" x="2565.45" y="0">h</tspan></text>
  </g>
</svg>